<?xml version="1.0" encoding="UTF-8"?><svg xmlns="http://www.w3.org/2000/svg" xmlns:xlink="http://www.w3.org/1999/xlink" fill="#000000" height="176.9" preserveAspectRatio="xMidYMid meet" version="1" viewBox="-2.5 -2.3 162.3 176.9" width="162.3" zoomAndPan="magnify"><g fill="#545454"><g><g id="change1_1"><path d="M157.4238,114.5986c-1.8906-10.8706-5.416-21.4922-10.4873-31.2881 c-4.8975-9.4639-11.9395-19.0498-21.5791-24.0991c0.3428-0.5713,0.5205-1.2739,0.5088-1.873 c-0.0127-0.6367-0.2998-1.1309-0.7207-1.499c0.2715-0.2251,0.1299-0.7266-0.2764-0.7559 c-0.1113-0.0083-0.2236-0.0117-0.334-0.0181c0.7207-0.8867,1.1709-2.0649,1.6543-3.0732c1-2.0903,1.9561-4.1997,2.9346-6.2988 c2.0713-4.4355,4.3369-8.7729,7.2744-12.7046c0.2793-0.3745-0.0312-0.8345-0.3896-0.9775 c-6.7646-2.7021-13.5576,2.1519-20.4131,1.9438c0.1357-0.3843,0.2764-0.7651,0.3701-1.1709 c0.0781-0.3433-0.1328-0.6509-0.417-0.8115c-6.3008-3.5562-14.1885-0.665-20.7402,0.5444 c-0.3564,0.0664-0.3916,0.4204-0.2383,0.6675c-0.0117,0.0508-0.0156,0.105,0.0039,0.165 c0.8281,2.521,2.3047,4.8726,3.4902,7.2407c1.1738,2.3438,2.2578,4.7295,3.2588,7.1509c0.8613,2.0859,1.5576,4.23,2.3477,6.3423 c0.1943,0.522,0.3291,1.1616,0.7236,1.564c-1.2607,1.103-1.6045,2.9326-0.708,4.4688c-2.9453,1.8242-5.6191,4.2397-8.0938,6.7476 c0.4756,0.3633,0.8643,0.811,1.165,1.3125c2.6719-2.5635,5.4551-4.9927,8.1016-7.606c0.7705,0.2939,1.7051,0.2827,2.4922,0.3638 c1.6768,0.1729,3.3838,0.1733,5.0664,0.2017c3.6699,0.0654,7.3555-0.062,11.0068-0.4277 c0.3125-0.0312,0.5088-0.2178,0.5967-0.4468c0.0156-0.002,0.0322,0,0.0469-0.0044c0.1855-0.0454,0.3564-0.1226,0.5137-0.2227 c8.792,6.2495,15.3672,14.106,20.4541,23.6309c4.9365,9.2471,8.2051,19.4067,10.1807,29.6816 c1.9756,10.2793,2.5674,21.3564-1.0332,31.3516c-1.6602,4.6108-4.2246,8.9907-7.4805,12.6479 c-1.6543,1.856-3.5791,3.4321-5.6504,4.7974c-2.3604,1.5557-4.9814,2.3682-7.543,3.4863 c-0.1045,0.0449-0.1885,0.1064-0.2559,0.1782c-2.6113,0.5254-5.1709,1.1021-7.8623,1.3291 c-3.5664,0.3003-7.1543,0.314-10.7285,0.2363c-3.584-0.0796-7.165-0.3101-10.7383-0.5635 c-1.6055-0.1133-3.21-0.2378-4.8154-0.3447c-0.7764-0.0522-1.5439-0.1445-2.2949-0.1226 c-0.0547-0.1851-0.1777-0.3477-0.3926-0.4497c-1.0537-0.498-2.0684-1.0522-3.0645-1.6318 c-0.4619,0.5376-0.9844,1.0073-1.5537,1.4189c1.1133,0.6055,2.2471,1.1646,3.4219,1.6196 c1.1162,0.6602,2.4453,0.6738,3.7334,0.8086c1.9141,0.2031,3.8281,0.376,5.7461,0.5352 c3.6025,0.2998,7.209,0.5059,10.8242,0.5928c6.4404,0.1514,13.7695,0.2432,19.874-2.1274 c0.207-0.0791,0.335-0.2104,0.4053-0.3633c3.9482-1.0254,7.7275-3.6118,10.583-6.3296 c3.8809-3.6914,6.6318-8.1777,8.8096-13.0386C159.751,137.2339,159.2832,125.3071,157.4238,114.5986z M102.4443,47.1465 c-1.834-4.5405-3.9111-9.7515-6.9023-13.7061c6.3877,0.021,12.6279-3.5249,18.8086-0.4121 c-0.1562,0.4917-0.3535,0.9668-0.4814,1.4712c-0.0693,0.2744,0.084,0.604,0.3242,0.7676 c-0.4082,0.6938-0.6084,2.1875-0.6396,2.4448c-0.4053,3.2607-0.0791,6.5273-0.0137,9.7891 c0.0059,0.249,0.4043,0.3076,0.4443,0.0493c0.3359-2.1729,0.3838-4.3701,0.4023-6.5664 c0.0039-0.3223,0.1768-4.4072,0.3975-5.5947c6.6895,0.439,13.4492-4.3828,19.9863-2.4023 c-2.71,3.7549-4.834,7.8477-6.8125,12.0317c-0.9883,2.0908-1.9346,4.2007-2.915,6.2949 c-0.5391,1.1523-1.3945,2.3633-1.6523,3.6152c-0.0068,0.0322-0.001,0.062-0.001,0.0942 c-0.0645-0.0015-0.126-0.0034-0.1875-0.0049c-0.0107-0.001-0.0195-0.0034-0.0303-0.0044 c-0.0322-0.0049-0.0596,0.0034-0.0898,0.0039c-3.0439-0.0303-6.1455,0.3457-9.165,0.4429 c-1.9922,0.0635-3.9863,0.0898-5.9785,0.0908c-0.6641,0-1.6006-0.166-2.374-0.042c-0.0088-0.1587-0.1318-0.3091-0.2842-0.3511 c-0.0117-0.7168-0.3711-1.3828-0.6426-2.1001C103.8955,51.0894,103.2324,49.0986,102.4443,47.1465z M123.5215,59.2612 c-0.0605-0.0088-0.124-0.0122-0.1934-0.0054c-3.4268,0.3428-6.8682,0.4336-10.3105,0.4551 c-1.6992,0.0117-3.3994-0.0269-5.0977-0.1001c-0.7324-0.0317-1.5938-0.168-2.3994-0.1323 c-0.0938-0.1621-0.2822-0.2607-0.4951-0.1445c-0.0859,0.0459-0.1689,0.0957-0.2539,0.1436 c-0.1338-0.3799-0.2705-0.7524-0.335-1.1587c-0.0996-0.6226,0.1367-1.2344,0.4678-1.7769 c0.6543,0.417,1.6777,0.2974,2.4189,0.3247c1.9766,0.0737,3.9551,0.0454,5.9307,0.0034 c3.3125-0.0718,6.8799-0.0054,10.1943-0.6108c0.4746,0.2695,0.8887,0.6396,0.9268,1.2129 C124.4189,58.1587,123.8066,58.6631,123.5215,59.2612z" fill="inherit"/><path d="M112.8232,112.1558c0.2168-0.2368,0.0889-0.627-0.1738-0.7886c-0.874-0.5415-1.7422-0.5269-2.749-0.6367 c-0.1611-0.0176-0.3184-0.0483-0.4766-0.0762c0.1182,0.6826,0.1152,1.3755-0.041,2.021 c0.8623,0.1357,1.7168,0.1519,2.4893-0.0723c-0.5391,2.2021-0.0186,5.0146,0.0674,7.1382 c0.0117,0.2607-0.0322,1.0259,0.0293,1.7729c-0.291-0.5029-0.7666-1.0117-0.9346-1.2407 c-0.4902-0.6694-0.8984-1.3877-1.3047-2.1104c-0.0781-0.1396-0.1533-0.2886-0.2295-0.4399 c0.0244,0.7983-0.1328,1.5771-0.4883,2.2476c0.0391,0.0688,0.085,0.1504,0.1201,0.2129 c0.4365,0.7661,1.4365,2.8857,2.5762,2.5596c0.2188-0.063,0.3496-0.1631,0.4219-0.2856 c0.1357,0.4468,0.3604,0.7695,0.7393,0.7686C114.2119,123.2246,113.3623,114.4038,112.8232,112.1558z" fill="inherit"/><path d="M136.3965,116.3169c-1.3506-8.0308-10.1152-15.1118-18.1045-15.6157 c0.1826-1.0249-0.0312-2.3208-0.0391-3.248c-0.0078-1.2188,0.2451-3.042-0.1836-4.3242c0.4551,0.4585,0.9639,0.8784,1.377,1.3735 c0.6543,0.7847,1.042,1.7505,1.2891,2.731c0.168,0.6626,1.0303,0.5762,1.2354,0.0762c0.0596,0.0796,0.1465,0.1377,0.2627,0.1421 c2.5732,0.0923,5.3906-0.8765,7.8955-1.396c1.0215-0.2124,4.2832-0.3608,4.6885-1.6108c0.0244-0.0791-0.0186-0.207-0.0869-0.2544 c-0.0381-0.0254-0.0811-0.042-0.1201-0.063c0.0127-0.0547,0.0107-0.1079,0.001-0.1606c0.0342-0.0835,0.0703-0.166,0.1035-0.2554 c0.0156-0.042,0.0273-0.085,0.041-0.1279c0.0674-0.0396,0.123-0.0947,0.1504-0.1821c0.7393-2.5752-3.3496-6.0806-5.21-7.3403 c-3.1875-2.1562-7.5244-3.7109-11.4033-2.981c0.0146-0.1401,0.0068-0.2861,0.0059-0.4287 c-0.0039-0.4004,0.0059-0.8027-0.0273-1.2026c-0.0273-0.3472-0.0127-0.7549-0.1592-1.0796 c-0.0059-0.0142-0.0107-0.0283-0.0166-0.0435c0.0264-0.3071-0.1465-0.6167-0.541-0.6147 c-1.2969,0.0049-2.6338-0.0752-3.9209,0.1006c-0.1562,0.021-0.2705,0.1089-0.3467,0.2212 c-0.2324,0.0039-0.4531,0.1362-0.4824,0.4189c-0.0391,0.3779-0.0752,0.7729-0.0977,1.1685 c-3.8281,0.2158-7.6143,1.5352-10.6982,3.7373c0.3125,0.481,0.54,1.0142,0.6797,1.5645 c2.8711-2.3125,6.4795-3.812,10.0186-4.2388c0.0078,0.1406,0.0137,0.2827,0.0312,0.4204 c0.0889,0.6855,1.0879,0.5889,1.1729-0.0527c0.0918-0.7075,0.0342-1.481-0.0352-2.209c1.1543,0.1245,2.3379,0.0786,3.498,0.0811 c-0.0615,0.4058-0.0859,0.8164-0.0879,1.2397c-0.0039,0.3931-0.0996,0.9062,0.1133,1.2554 c0.1191,0.1963,0.3125,0.2422,0.4844,0.1982c0.0205-0.0034,0.0391-0.0063,0.0586-0.0137 c0.0488,0.0928,0.1338,0.1689,0.2598,0.1909c3.7363,0.6733,7.0342,1.1104,10.3213,3.1909 c1.4541,0.9199,2.6865,2.1792,3.7168,3.5459c0.6504,0.8643,0.9219,2.0234,1.6846,2.7427 c-0.0996,0.1328-0.1914,0.2695-0.2598,0.4224c-0.0371,0.0801-0.0654,0.1665-0.084,0.2544 c-1.3867,0.0503-3.3223,0.8247-4.2061,1.022c-2.3623,0.5288-5.0625,0.7607-7.2803,1.7642 c-0.0508,0.0239-0.0908,0.0586-0.1221,0.0962c-0.4639-1.8716-2.0176-4.6655-4.208-4.7354 c-0.1807-0.0059-0.2881,0.1958-0.251,0.3569c-0.0752,0.0103-0.1455,0.0386-0.1846,0.1011 c-0.7432,1.1655-0.4375,3.2266-0.4473,4.5439c-0.0078,1.2114-0.4043,3.1562,0.1572,4.2783 c0.1787,0.3613,0.5996,0.4175,0.875,0.2075c7.04,2.269,13.9814,6.4434,16.248,13.9434 c2.8359,9.3823-8.3906,15.6763-16.3369,14.8677c-1.1211-0.1143-1.168,1.5903-0.0781,1.7363 c-0.1729,1.0332-0.3516,2.0601-0.4824,3.1045c-0.0723,0.5859-0.1992,1.2378-0.2383,1.8706 c-0.5918,0.1528-1.21,0.2212-1.8164,0.2695c-0.2734,0.0215-0.5479,0.0234-0.8223,0.0371c-0.0801,0-0.1602,0.0039-0.2393,0.0107 c-0.0762,0.0039-0.1211,0.0054-0.1533,0.0059c0.0088-0.2417,0.0469-0.4966-0.0166-0.7236 c-0.1182-0.415-0.1709-0.8491-0.2295-1.2754c-0.1699-1.2729-0.0449-2.6172-0.4375-3.8472 c-0.0596-0.1865-0.2461-0.3062-0.4307-0.3218c-0.0986-0.0669-0.2139-0.1089-0.3506-0.1118 c-1.04-0.02-2.0342,0.0181-3.0293,0.0161c0.0068,0.689-0.1113,1.3657-0.3887,1.9619c1.0332,0.0425,2.0625-0.0449,3.0557-0.3047 c-0.2715,1.9165-0.2646,5.0405,1.0967,5.4209c0.2539,0.4966,0.9893,0.5522,1.4902,0.5845 c0.8711,0.0537,1.7539-0.0498,2.6045-0.2476c0.3916,0.2891,1.0254,0.1792,1.1611-0.4272 c0.4238-1.8828,0.415-3.9629,0.5039-5.9189C127.8164,132.6313,138.0322,126.0571,136.3965,116.3169z" fill="inherit"/><path d="M113.5391,91.874c0.4697-0.4248-0.2139-1.2109-0.8027-0.834c-1.6465,1.0576-3.2119,2.1392-3.4707,4.2397 c-0.2363,1.9219,1.4697,4.0806,3.2041,4.6704c0.5195,0.1772,1.1094-0.5,0.7568-0.9717 c-0.0693-0.0933-0.1455-0.1782-0.2207-0.2651c0.3623-0.3369,0.5068-0.8843,0.5684-1.3945 C113.7793,95.6294,114.1387,93.5288,113.5391,91.874z M112.5332,92.6113c-0.1904,1.2007-0.1367,2.4746-0.2695,3.6655 c-0.0527,0.4766-0.1748,1.0054-0.1611,1.5078c-0.6016-0.5884-1.1523-1.1895-1.3008-2.1431 C110.624,94.5151,111.5742,93.4019,112.5332,92.6113z" fill="inherit"/><path d="M118.8701,112.7881c-0.208-0.0845-0.4121-0.0239-0.5693,0.104 c-0.3545-0.2012-0.8809-0.0757-0.8926,0.4517c-0.042,1.7437-0.1787,3.4854-0.2236,5.229c-0.0381,1.52-0.373,3.0898,0.377,4.4253 l0.0078-0.0083c0.0957,0.1401,0.3018,0.2017,0.4336,0.0356c0.0322-0.0415,0.0537-0.0845,0.084-0.1265 c0.208,0.1299,0.4746,0.1475,0.7598-0.041c1.8877-1.2451,3.9932-2.8682,4.0537-5.3369 C122.9541,115.2764,120.7373,113.5425,118.8701,112.7881z M118.623,120.9702c0.0117-0.4209-0.0039-0.8545,0.0059-1.2954 c0.0479-1.834,0.0332-3.6572,0.0029-5.4878c1,0.7715,2.1201,1.5342,2.5176,2.7788 C121.6729,118.6016,119.9287,120.0527,118.623,120.9702z" fill="inherit"/></g><g id="change1_35"><path d="M105.4238,163.3433c-2.8877-0.75-6.0479-0.5474-9.0029-0.8794c-0.4961-0.0557-0.9873-0.1294-1.4795-0.207 c-0.127,0.1167-0.2686,0.2197-0.416,0.3179c-0.167,0.2856-0.332,0.5728-0.5186,0.8398c3.623,0.7339,7.8701,1.1914,11.4463,0.4346 C105.7295,163.7905,105.6533,163.4028,105.4238,163.3433z" fill="inherit"/></g><g id="change1_36"><path d="M98.9766,66.1089c0.1182-0.2397-0.2236-0.5127-0.3975-0.2842c-0.6562,0.8677-1.1484,1.9077-1.4805,3.0073 c0.4346,1.0361,0.5381,2.2007,0.2754,3.2314c0.1777,0.3975,0.3477,0.7998,0.5049,1.209 c-0.0469-0.9507-0.1318-1.9019-0.0732-2.8579C97.8984,68.9077,98.3096,67.4575,98.9766,66.1089z" fill="inherit"/></g><g id="change1_37"><path d="M101.3018,63.2402c-1.4834,2.2051-2.2686,5.4702-1.0605,7.9824c0.082,0.1709,0.3848,0.1309,0.4121-0.061 c0.3799-2.6528-0.1777-5.1621,1.0303-7.7041C101.8057,63.2007,101.46,63.0044,101.3018,63.2402z" fill="inherit"/></g><g id="change1_38"><path d="M104.3086,60.7183c0.1084-0.2358-0.1846-0.4067-0.3408-0.2051c-1.5186,1.9438-2.1553,4.9771-1.0889,7.2783 c0.1084,0.2349,0.4258,0.0806,0.4365-0.1294c0.0527-1.0767-0.0742-2.1504-0.0215-3.2305 C103.3584,63.1421,103.7715,61.8823,104.3086,60.7183z" fill="inherit"/></g><g id="change1_39"><path d="M115.665,54.3433c-0.0303-0.0122-0.0684-0.0234-0.1035-0.0371c-0.2119-0.2651-0.6855-0.2026-0.7109,0.2085 c-0.0293,0.4316,0.3711,0.6929,0.7676,0.5703C115.9727,54.9761,116.0479,54.479,115.665,54.3433z" fill="inherit"/></g><g id="change1_40"><path d="M116.1719,52.9946c-0.1816-0.1138-0.4072-0.144-0.6172-0.1958c-0.1826-0.0464-0.3594-0.1211-0.5342-0.1934 c-0.373-0.1514-0.6895,0.4209-0.3369,0.6333c0.4111,0.2471,0.9404,0.5864,1.4326,0.3901 C116.3652,53.5273,116.3994,53.1372,116.1719,52.9946z" fill="inherit"/></g><g id="change1_41"><path d="M116.4697,51.2056c-0.2646-0.2319-0.6406-0.2451-0.9639-0.3574 c-0.3203-0.1113-0.6172-0.2598-0.8711-0.4878c-0.1895-0.1709-0.5625,0.0366-0.4385,0.292 c0.2207,0.457,0.5166,0.7783,0.9717,1.0078c0.375,0.188,0.9307,0.2939,1.2881,0.0322 C116.6201,51.5728,116.6201,51.3359,116.4697,51.2056z" fill="inherit"/></g><g id="change1_42"><path d="M116.8896,49.4409c-0.4746-0.2432-1.0205-0.2759-1.5049-0.5137 c-0.5508-0.2715-0.9541-0.8613-1.1504-1.4258c-0.0869-0.2495-0.4424-0.1938-0.4502,0.0703 c-0.0273,0.7544,0.167,1.4165,0.7334,1.9453c0.5791,0.5425,1.5664,0.8896,2.332,0.6011 C117.1123,50.019,117.1426,49.5708,116.8896,49.4409z" fill="inherit"/></g><g id="change1_43"><path d="M117.3105,47.0405c-0.5361-0.2803-1.1338-0.3481-1.6602-0.6704 c-0.5068-0.3086-0.8877-0.7925-1.1787-1.2993c-0.1328-0.23-0.4629-0.0679-0.4111,0.1758c0.2822,1.3164,1.751,2.8174,3.2256,2.3257 C117.5352,47.4893,117.5234,47.1528,117.3105,47.0405z" fill="inherit"/></g><g id="change1_44"><path d="M117.9443,44.6113c-0.5283-0.4321-1.2393-0.5518-1.8398-0.8564c-0.8008-0.4043-1.502-1.0176-1.9785-1.7783 c-0.1387-0.2197-0.5273-0.0664-0.4268,0.1899c0.3447,0.8872,0.8271,1.5371,1.5771,2.126 c0.6797,0.5332,1.7812,1.0024,2.6191,0.6226C118.002,44.8667,118.04,44.689,117.9443,44.6113z" fill="inherit"/></g><g id="change1_45"><path d="M117.6436,41.3062c-0.7178-0.3247-1.5186-0.3325-2.2266-0.7114c-0.668-0.3584-1.1777-1.0015-1.4854-1.6851 c-0.1074-0.2354-0.418-0.0586-0.3857,0.1572c0.251,1.7266,2.3018,3.4946,4.0928,2.5933 C117.7686,41.5957,117.7852,41.3701,117.6436,41.3062z" fill="inherit"/></g><g id="change1_46"><path d="M117.9434,37.8789c-0.6084-0.2109-1.248-0.2549-1.8574-0.4541c-0.7314-0.2388-1.126-0.7935-1.332-1.5176 c-0.0312-0.1118-0.1982-0.1548-0.2412-0.0239c-0.6592,1.9785,1.9355,2.9624,3.459,2.314 C118.1182,38.1343,118.0791,37.9243,117.9434,37.8789z" fill="inherit"/></g><g id="change1_47"><path d="M108.2275,53.7524c-0.6426-0.292-1.3779-0.228-2.0645-0.3433c-0.7148-0.1206-1.3809-0.3979-2.0615-0.6328 c-0.2109-0.0728-0.4062,0.2305-0.2715,0.3989c0.8594,1.0708,3.2041,1.9634,4.4307,1.0576 C108.4248,54.1123,108.4248,53.8428,108.2275,53.7524z" fill="inherit"/></g><g id="change1_48"><path d="M108.2168,50.9795c-0.7637-0.3574-1.6758-0.2939-2.4902-0.4976c-0.8965-0.2231-1.7334-0.7095-2.4766-1.248 c-0.2129-0.1548-0.5625,0.0659-0.3838,0.3179c1.0195,1.439,3.7012,3.1523,5.4043,1.79 C108.3838,51.2515,108.3428,51.0381,108.2168,50.9795z" fill="inherit"/></g><g id="change1_49"><path d="M107.1699,47.917c-0.8369-0.4336-1.9111-0.4761-2.8105-0.7695c-0.8896-0.291-1.6689-0.8276-2.4287-1.3574 c-0.2207-0.1538-0.5684,0.0664-0.3906,0.3271c1.0352,1.5122,3.7314,3.2051,5.6094,2.3408 C107.3818,48.3506,107.4062,48.0396,107.1699,47.917z" fill="inherit"/></g><g id="change1_50"><path d="M106.0127,44.8076c-0.9688-0.6211-2.3359-0.5957-3.4004-1.0605 c-0.9238-0.4023-1.7334-1.0205-2.5176-1.6421c-0.167-0.1328-0.3545,0.1064-0.2764,0.2656c0.5107,1.0498,1.3291,1.79,2.3516,2.3394 c1.0498,0.564,2.7354,1.1426,3.8496,0.4971C106.1787,45.1143,106.1553,44.8989,106.0127,44.8076z" fill="inherit"/></g><g id="change1_51"><path d="M105.0674,41.4629c-1.248-0.3833-2.5342-0.4966-3.7617-0.9775c-0.9238-0.3628-1.666-1.0132-2.5293-1.4766 c-0.1445-0.0771-0.3799,0.0518-0.3076,0.2339c0.8828,2.2412,4.4824,3.4756,6.6484,2.7749 C105.4209,41.9189,105.3193,41.5391,105.0674,41.4629z" fill="inherit"/></g><g id="change1_52"><path d="M104.1025,38.062c-1.2246-0.1226-2.4229-0.0088-3.6465-0.2329c-1.2891-0.2363-2.5078-0.8755-3.5547-1.645 c-0.2578-0.1899-0.5664,0.1274-0.3418,0.3687c1.8125,1.9468,5.0654,3.1865,7.624,1.9673 C104.377,38.4282,104.3154,38.083,104.1025,38.062z" fill="inherit"/></g><g id="change1_53"><path d="M103.084,35.1216c-1.2334-0.0894-2.4707-0.1055-3.7021-0.2256c-1.1084-0.1074-2.2363-0.5815-3.3447-0.5312 c-0.1191,0.0059-0.2305,0.1484-0.127,0.251c1.582,1.5571,5.2529,1.5571,7.2129,0.8774 C103.3223,35.4248,103.3057,35.1377,103.084,35.1216z" fill="inherit"/></g></g><g><g id="change1_2"><path d="M95.7129,66.5205c-6.1436-11.8662-14.9727-23.8857-27.0576-30.2163 c0.4297-0.7173,0.6504-1.5991,0.6348-2.3501c-0.0156-0.7979-0.374-1.4175-0.9033-1.8789 c0.3408-0.2822,0.1631-0.9111-0.3457-0.9482c-0.1387-0.0098-0.2783-0.0151-0.418-0.0225 c0.9033-1.1118,1.4697-2.5894,2.0732-3.853c1.2539-2.6201,2.4521-5.2661,3.6816-7.8979c2.5957-5.5625,5.4355-11,9.1191-15.9307 c0.3516-0.4697-0.0391-1.0464-0.4893-1.2261c-8.4795-3.3882-16.998,2.6982-25.5947,2.437 c0.1719-0.4819,0.3486-0.959,0.4648-1.4678c0.0977-0.4302-0.168-0.8164-0.5244-1.0166 c-7.8994-4.46-17.7881-0.8354-26.0029,0.6816c-0.4473,0.0825-0.4912,0.5273-0.3008,0.8379 c-0.0146,0.0635-0.0186,0.1313,0.0059,0.2061c1.0371,3.1611,2.8887,6.1094,4.376,9.0801 c1.4717,2.939,2.8291,5.9302,4.0859,8.9658c1.0811,2.6147,1.9541,5.3037,2.9443,7.9521 c0.2441,0.6538,0.4121,1.4575,0.9062,1.9604c-1.5801,1.3843-2.0117,3.6772-0.8877,5.604 c-5.2324,3.2417-9.7959,7.9668-13.9102,12.4087c-5.0527,5.4536-9.5322,11.4224-13.4678,17.7256 c-7.418,11.8833-11.9971,24.7969-13.519,38.7139c-1.4053,12.8438-0.3882,26.2554,4.3374,38.3574 c4.5508,11.6567,14.123,22.6079,25.9512,27.1929c1.3994,0.8262,3.0664,0.8438,4.6807,1.0137 c2.3994,0.2549,4.8008,0.4707,7.2061,0.6709c4.5166,0.376,9.0381,0.6348,13.5723,0.7412 c8.0742,0.1914,17.2646,0.3066,24.9199-2.665c0.2588-0.1006,0.418-0.2646,0.5059-0.457 c4.9521-1.2852,9.6904-4.5278,13.2715-7.9355c4.8652-4.6294,8.3154-10.2554,11.0469-16.3486 c5.7041-12.7202,5.1182-27.6753,2.7852-41.1025C106.4912,92.123,102.0713,78.8047,95.7129,66.5205z M39.9238,21.1753 c-2.2998-5.6934-4.9043-12.228-8.6562-17.1865c8.0107,0.0259,15.8359-4.4189,23.5859-0.5161 c-0.1963,0.6162-0.4443,1.2124-0.6035,1.8442c-0.0869,0.3442,0.1025,0.7573,0.4062,0.9624 c-0.5127,0.8696-0.7637,2.7432-0.8037,3.0659c-0.5068,4.0884-0.0996,8.1846-0.0156,12.2749 c0.0059,0.312,0.5068,0.3853,0.5566,0.0615c0.4209-2.7251,0.4814-5.4795,0.5049-8.2344 c0.0039-0.4038,0.2197-5.5259,0.4961-7.0146c8.3896,0.5498,16.8643-5.4951,25.0635-3.0132 c-3.3975,4.7095-6.0635,9.8418-8.543,15.0874c-1.2393,2.6216-2.4268,5.2676-3.6553,7.894 c-0.6758,1.4438-1.749,2.9629-2.0723,4.5317c-0.0078,0.0415-0.001,0.0786-0.001,0.1191 c-0.0791-0.0015-0.1582-0.0049-0.2354-0.0063c-0.0127-0.001-0.0254-0.0039-0.0371-0.0059 c-0.04-0.0054-0.0752,0.0049-0.1143,0.0054c-3.8154-0.0386-7.7041,0.4331-11.4922,0.5547 c-2.498,0.0806-4.9971,0.1128-7.4951,0.1143c-0.833,0.0005-2.0078-0.208-2.9756-0.0518 c-0.0117-0.2002-0.167-0.3892-0.3594-0.4404c-0.0127-0.8989-0.4629-1.7339-0.8027-2.6343 C41.7422,26.1191,40.9121,23.6235,39.9238,21.1753z M67.4209,34.1221c0.0557,0.8613-0.7109,1.4937-1.0703,2.2437 c-0.0752-0.0107-0.1543-0.0156-0.2402-0.0068c-4.2979,0.4297-8.6133,0.5435-12.9287,0.5718 c-2.1318,0.0137-4.2637-0.0337-6.3926-0.1265c-0.918-0.04-2-0.2109-3.0098-0.1665c-0.1152-0.2026-0.3525-0.3252-0.6201-0.1812 c-0.1074,0.0571-0.2109,0.1211-0.3174,0.1802c-0.1689-0.4766-0.3398-0.9424-0.4209-1.4531 c-0.125-0.7808,0.1709-1.5479,0.5869-2.2275c0.8203,0.5234,2.1045,0.373,3.0332,0.4072c2.4775,0.0923,4.96,0.0571,7.4365,0.0044 c4.1523-0.0903,8.626-0.0078,12.7832-0.7661C66.8545,32.939,67.374,33.4043,67.4209,34.1221z M104.7998,143.4951 c-2.082,5.7817-5.2988,11.2729-9.3828,15.8579c-2.0723,2.3286-4.4863,4.3052-7.084,6.0166 c-2.96,1.9502-6.2441,2.9692-9.457,4.3706c-0.1299,0.0566-0.2363,0.1348-0.3203,0.2236 c-3.2744,0.6602-6.4854,1.3818-9.8594,1.666c-4.4707,0.377-8.9697,0.3955-13.4531,0.2979 c-4.4922-0.0986-8.9824-0.3896-13.4639-0.707c-2.0127-0.1416-4.0244-0.2979-6.0391-0.4326 c-0.9727-0.0654-1.9346-0.1807-2.876-0.1523c-0.0693-0.2324-0.2227-0.4365-0.4932-0.5654 c-11.6689-5.5156-20.6934-15.0508-25.4248-27.0659c-4.5806-11.6328-5.2437-24.7178-3.9624-37.0391 c1.3613-13.084,5.7593-25.1396,12.4683-36.4268c3.4102-5.7373,7.3984-11.1226,11.7441-16.1821 c4.8301-5.6235,10.5225-10.1812,15.7539-15.3496c0.9668,0.3687,2.1387,0.355,3.126,0.457 c2.1016,0.2163,4.2422,0.2163,6.3545,0.2539c4.6006,0.0801,9.2207-0.0801,13.7988-0.5381 c0.3936-0.0391,0.6387-0.2729,0.749-0.5596c0.0195-0.0029,0.0391-0.0005,0.0596-0.0049 c0.2314-0.0576,0.4453-0.1558,0.6436-0.2798c11.0225,7.8359,19.2695,17.6865,25.6475,29.6304 c6.1914,11.5947,10.2881,24.3335,12.7656,37.2183C108.5703,117.0728,109.3135,130.9624,104.7998,143.4951z" fill="inherit"/><path d="M82.4951,107.9077C80.8037,97.8384,69.8115,88.959,59.7939,88.3271 c0.2295-1.2852-0.0391-2.9097-0.0479-4.0718c-0.0098-1.5293,0.3057-3.8159-0.2305-5.4229 c0.5703,0.5742,1.209,1.1011,1.7256,1.7217c0.8203,0.9849,1.3066,2.1953,1.6172,3.4248c0.209,0.8315,1.293,0.7227,1.5498,0.0952 c0.0732,0.0996,0.1826,0.1733,0.3281,0.1787c3.2266,0.1152,6.7588-1.0991,9.9004-1.7515 c1.2803-0.2661,5.3701-0.4521,5.8789-2.0195c0.0312-0.0986-0.0234-0.2593-0.1094-0.3184 c-0.0469-0.0317-0.1006-0.0532-0.1514-0.0791c0.0176-0.0679,0.0156-0.1357,0.002-0.2012 c0.043-0.1055,0.0889-0.2085,0.1299-0.3203c0.0195-0.0532,0.0342-0.1064,0.0518-0.1606c0.084-0.0503,0.1562-0.1191,0.1875-0.229 c0.9277-3.2295-4.1992-7.6245-6.5322-9.2041c-3.9951-2.7031-9.4346-4.6528-14.2988-3.7378 c0.0186-0.1748,0.0098-0.3579,0.0068-0.5356c-0.0029-0.5029,0.0088-1.0078-0.0322-1.5083 c-0.0352-0.4365-0.0166-0.9468-0.1992-1.3535c-0.0078-0.0186-0.0146-0.0371-0.0215-0.0557 c0.0322-0.3848-0.1826-0.7734-0.6787-0.771c-1.627,0.0068-3.3018-0.0942-4.917,0.1265 c-0.1953,0.0269-0.3389,0.1367-0.4355,0.2769c-0.2881,0.0059-0.5664,0.1714-0.6035,0.5264 c-0.0498,0.4731-0.0947,0.9683-0.1221,1.4644c-10.5137,0.5928-20.835,7.7485-22,18.8853 c-0.5195,4.9673,1.4297,9.5464,4.8047,13.1206c2.1816,2.3096,5.043,3.9609,7.9092,5.2627 c2.2891,1.0386,5.6367,2.3374,8.2393,1.5806c-0.6768,2.7607-0.0244,6.2891,0.085,8.9512 c0.0137,0.3271-0.042,1.2861,0.0361,2.2227c-0.3652-0.6304-0.9609-1.2676-1.1729-1.5562 c-0.6143-0.8394-1.127-1.7397-1.6357-2.646c-0.4316-0.7695-0.7578-1.7935-1.5332-2.2783 c-0.1201-0.0752-0.2666-0.0249-0.3418,0.0859c-0.1084,0.1597-0.1846,0.3325-0.2334,0.5117 c-0.9912-1.0645-5.3105,0.0229-6.293,0.1226c-3.2715,0.332-7.1953,0.0869-10.2871,1.3003 c-0.3008,0.1177-0.335,0.5303-0.1494,0.7568c-0.0322,0.0532-0.0596,0.1147-0.0645,0.1943 c-0.4121,4.9639,3.667,11.0088,7.415,13.9453c3.8955,3.0527,9.582,5.0449,14.5459,3.7446 c-0.3398,2.4023-0.332,6.3198,1.374,6.7974c0.3184,0.6221,1.2422,0.6929,1.8691,0.7329c1.0928,0.0674,2.1992-0.062,3.2646-0.3105 c0.4912,0.3633,1.2881,0.2251,1.459-0.5361c0.5293-2.3599,0.5176-4.9692,0.6299-7.4219 C71.7373,128.3643,84.5459,120.1206,82.4951,107.9077z M59.21,125.561c-1.4082-0.1426-1.4648,1.9941-0.0996,2.1772 c-0.2139,1.2954-0.4404,2.5825-0.6035,3.8926c-0.0908,0.7349-0.251,1.5522-0.3008,2.3457 c-0.7393,0.1909-1.5166,0.2769-2.2754,0.3374c-0.3438,0.0269-0.6885,0.0293-1.0322,0.0469 c-0.0996,0.0005-0.2002,0.0044-0.2998,0.0127c-0.0947,0.0059-0.1514,0.0068-0.1914,0.0083 c0.0117-0.3027,0.0586-0.6235-0.0205-0.9077c-0.1475-0.5205-0.2158-1.0645-0.2891-1.5996 c-0.2129-1.5962-0.0557-3.2812-0.5469-4.8237c-0.0762-0.2339-0.3096-0.3833-0.543-0.4023 c-0.1211-0.0845-0.2666-0.1372-0.4375-0.1406c-2.5098-0.0483-4.8086,0.2534-7.3135-0.2725 c-2.4111-0.5059-4.5869-1.7056-6.5254-3.189c-1.9707-1.5093-3.5059-3.4956-4.7744-5.606 c-1.2246-2.0352-1.7207-4.3877-2.8584-6.4365c3.4775,0.6362,7.7197-0.2778,11.1455-0.5967 c0.5645-0.0527,3.7598,0.0356,4.6729-0.8179c0.1816,1.1357,0.9385,2.3687,1.3926,3.1665 c0.5459,0.9614,1.7998,3.6191,3.2295,3.2095c0.2744-0.0786,0.4375-0.2046,0.5283-0.3589 c0.1699,0.5615,0.4531,0.9653,0.9268,0.9648c1.6855-0.002,0.6191-11.0625-0.0576-13.8813 c0.2725-0.2964,0.1133-0.7847-0.2158-0.9888c-1.0957-0.6787-2.1855-0.6606-3.4482-0.7988 c-1.918-0.2104-3.6992-0.9316-5.4414-1.7178c-2.4805-1.1182-4.7256-2.6558-6.6611-4.5625 c-3.4346-3.3862-4.7256-8.2012-3.792-12.8745c1.7773-8.8877,10.7852-14.9727,19.4141-16.0137 c0.0098,0.1763,0.0156,0.355,0.0391,0.5273c0.1113,0.8599,1.3643,0.7393,1.4688-0.0649c0.1172-0.8892,0.0449-1.8584-0.043-2.7705 c1.4482,0.1562,2.9307,0.0981,4.3857,0.1011c-0.0771,0.5098-0.1055,1.0239-0.1104,1.5557 c-0.0039,0.4922-0.1221,1.1362,0.1426,1.5737c0.1504,0.2456,0.3916,0.3037,0.6084,0.2476 c0.0244-0.0039,0.0488-0.0078,0.0723-0.0156c0.0615,0.1152,0.167,0.2104,0.3281,0.2393 c4.6826,0.8428,8.8174,1.3921,12.9404,4.0005c1.8242,1.1543,3.3701,2.7329,4.6602,4.4453 c0.8154,1.084,1.1562,2.5386,2.1143,3.4409c-0.126,0.165-0.2422,0.3369-0.3291,0.5283c-0.0449,0.1001-0.0811,0.209-0.1035,0.3184 c-1.7393,0.0649-4.166,1.0347-5.2744,1.2827c-2.9619,0.6621-6.3477,0.9531-9.1279,2.2119 c-0.0645,0.0298-0.1133,0.0728-0.1533,0.1201c-0.583-2.3467-2.5303-5.8506-5.2783-5.938 c-0.2246-0.0068-0.3584,0.2466-0.3145,0.4478c-0.0928,0.0137-0.1807,0.0479-0.2305,0.1274 c-0.9316,1.4614-0.5498,4.0459-0.5605,5.6978c-0.0098,1.5181-0.5068,3.957,0.1963,5.3643 c0.2256,0.4526,0.7529,0.5229,1.0996,0.2598c8.8252,2.8457,17.5283,8.0791,20.3711,17.4834 C83.249,118.6836,69.1738,126.5752,59.21,125.561z" fill="inherit"/><path d="M53.8359,77.2583c0.5879-0.5317-0.2705-1.5181-1.0068-1.0449c-2.0654,1.3262-4.0283,2.6821-4.3535,5.3159 c-0.2969,2.4097,1.8428,5.1167,4.0176,5.8564c0.6523,0.2217,1.3926-0.627,0.9502-1.2188 c-0.0869-0.1172-0.1836-0.2236-0.2773-0.3325c0.4541-0.4224,0.6357-1.1089,0.7129-1.748 C54.1357,81.9683,54.5869,79.3335,53.8359,77.2583z M52.5752,78.1841c-0.2402,1.5054-0.1738,3.1011-0.3389,4.5952 c-0.0674,0.5977-0.2188,1.2612-0.2031,1.8906c-0.7529-0.7363-1.4434-1.4907-1.6318-2.687 C50.1787,80.5713,51.3711,79.1748,52.5752,78.1841z" fill="inherit"/><path d="M60.5195,103.4824c-0.2607-0.105-0.5166-0.0293-0.7139,0.1313 c-0.4443-0.2529-1.1045-0.0952-1.1201,0.5669c-0.0518,2.1855-0.2236,4.3687-0.2783,6.5566 c-0.0488,1.9048-0.4678,3.8735,0.4707,5.5474l0.0117-0.0093c0.1191,0.1748,0.377,0.252,0.542,0.0435 c0.04-0.0508,0.0674-0.105,0.1055-0.1567c0.2607,0.1621,0.5967,0.1836,0.9531-0.0522c2.3672-1.5625,5.0068-3.5967,5.082-6.6924 C65.6416,106.603,62.8623,104.4297,60.5195,103.4824z M60.2109,113.7422c0.0137-0.5278-0.0078-1.0713,0.0068-1.6235 c0.0596-2.2998,0.042-4.5864,0.0039-6.8809c1.252,0.9673,2.6572,1.9233,3.1562,3.4839 C64.0332,110.7729,61.8467,112.5913,60.2109,113.7422z" fill="inherit"/></g><g id="change1_3"><path d="M43.6592,166.874c-3.6201-0.9414-7.582-0.687-11.2881-1.103c-2.3867-0.2681-4.7412-0.73-7.042-1.4131 c-3.377-1.0015-5.8174-3.0117-8.7051-4.9727c-0.1934-0.1304-0.3838,0.0933-0.3105,0.2803 c1.749,4.3921,7.9766,6.2129,12.0947,7.1094c4.7314,1.0278,10.4971,1.7476,15.2871,0.7339 C44.042,167.4346,43.9473,166.9497,43.6592,166.874z" fill="inherit"/></g><g id="change1_4"><path d="M33.71,160.0737c-4.4551-0.9634-8.8525-1.1992-13.1602-2.8809c-2.1973-0.8579-4.2324-2.0146-6.1152-3.4331 c-2.4678-1.8599-3.8828-4.2441-5.6367-6.6934c-0.1152-0.1626-0.3398-0.0142-0.3203,0.1523 c0.5566,4.8423,5.4072,8.4077,9.3809,10.4888c4.4688,2.3389,10.8408,4.2422,15.8584,2.8994 C33.9795,160.5371,33.9834,160.1328,33.71,160.0737z" fill="inherit"/></g><g id="change1_5"><path d="M25.1719,151.8472c-4.2188-1.6743-8.4609-2.3228-12.3438-4.8862 c-4.0781-2.6938-6.7373-6.8037-8.3394-11.3408c-0.1152-0.3252-0.5532-0.1982-0.5078,0.1333 c0.6895,5.0425,3.4116,9.1138,7.3999,12.1865c3.5947,2.769,9.0596,5.1484,13.667,4.5669 C25.3672,152.4668,25.5117,151.9824,25.1719,151.8472z" fill="inherit"/></g><g id="change1_6"><path d="M21.9639,145.123c-4.3086-2.4146-8.7607-3.5454-12.5322-6.9492 c-3.7783-3.4092-4.8994-7.6587-6.751-12.1465c-0.042-0.1025-0.2002-0.0874-0.2148,0.0254 c-1.2236,9.5474,10.2129,19.876,19.3682,19.6914C22.1748,145.7373,22.2334,145.2759,21.9639,145.123z" fill="inherit"/></g><g id="change1_7"><path d="M15.1855,134.9893c-2.7852-2.6172-6.168-4.4321-8.8506-7.2104 c-2.7925-2.8931-4.4717-6.3115-4.6406-10.3257c-0.0107-0.2407-0.3716-0.3325-0.4375-0.0732 c-1.9277,7.6758,6.6709,16.4575,13.6387,18.2007C15.2393,135.6665,15.4209,135.2095,15.1855,134.9893z" fill="inherit"/></g><g id="change1_8"><path d="M13.6406,126.2485c-3.4424-2.5117-6.4297-4.6543-8.7197-8.3818c-2.6465-4.3062-2.8652-8.793-1.811-13.564 c0.0205-0.0913-0.1074-0.1421-0.1626-0.0728c-5.4878,6.9121,2.2637,21.3872,10.4014,22.6235 C13.665,126.9019,13.9336,126.4634,13.6406,126.2485z" fill="inherit"/></g><g id="change1_9"><path d="M12.1982,114.3218c-2.4707-2.6641-4.8535-5.0688-6.4326-8.4067 c-1.8062-3.8213-2.0942-8.3442-1.0083-12.395c0.0898-0.3359-0.4258-0.5259-0.5742-0.21 c-3.3916,7.1802-0.1494,18.4727,7.6421,21.5605C12.1846,115.0122,12.458,114.6025,12.1982,114.3218z" fill="inherit"/></g><g id="change1_10"><path d="M13.5254,104.4956c-1.9395-2.9482-3.9678-5.7637-5.3643-9.0361 c-1.7891-4.1865-1.8555-7.7144,0.3906-11.6489c0.0654-0.1143-0.0303-0.2876-0.1719-0.2188 c-3.4116,1.6577-3.2593,6.5923-2.4082,9.6885c1.1504,4.1875,3.4199,9.1113,7.1982,11.5605 C13.3789,104.9756,13.665,104.7095,13.5254,104.4956z" fill="inherit"/></g><g id="change1_11"><path d="M13.7705,92.0894c-2.8994-5.5674-4.5762-11.0811-1.9854-17.1802c0.1465-0.3442-0.293-0.5859-0.5068-0.2793 c-3.4463,4.9536-3.4805,14.2793,2.1045,17.8608C13.6406,92.6562,13.8936,92.3267,13.7705,92.0894z" fill="inherit"/></g><g id="change1_12"><path d="M17.1943,86.4634c-0.9863-3.0869-2.3252-5.8916-2.748-9.146c-0.3975-3.0669,0.1055-6.2266,1.0752-9.1372 c0.1514-0.4546-0.4482-0.7383-0.6816-0.3101c-3.0332,5.5596-2.8906,14.2949,1.7568,19.0234 C16.8848,87.186,17.2998,86.7935,17.1943,86.4634z" fill="inherit"/></g><g id="change1_13"><path d="M19.5605,77.4463c-1.1787-3.0786-1.9512-5.8843-1.7119-9.2158c0.1748-2.4253,1.1416-4.6299,1.5322-6.9941 c0.042-0.2603-0.249-0.3965-0.415-0.187c-3.2637,4.1094-3.7188,12.8096,0.0967,16.7026 C19.2695,77.9629,19.6699,77.731,19.5605,77.4463z" fill="inherit"/></g><g id="change1_14"><path d="M23.5117,71.4136c-1.79-4.8208-2.4473-9.5391-0.0713-14.2944c0.1641-0.3311-0.3174-0.6816-0.5488-0.3735 c-3.2539,4.3315-3.6777,10.7681-0.0713,15.0566C23.1113,72.1489,23.6748,71.8501,23.5117,71.4136z" fill="inherit"/></g><g id="change1_15"><path d="M27.3047,67.1606c-0.5947-2.3101-1.5332-4.4731-1.7715-6.877c-0.2354-2.3481,0.2461-4.6543,1.1211-6.812 c0.1641-0.4072-0.3984-0.6875-0.6143-0.3008c-2.3604,4.2368-2.9082,10.5698,0.7578,14.3052 C27.0264,67.7075,27.3789,67.4448,27.3047,67.1606z" fill="inherit"/></g><g id="change1_16"><path d="M30.3389,48.5254c-2.7266,4.2744-2.8818,9.7319-0.4609,14.2119c0.1191,0.2217,0.5156,0.1392,0.4912-0.1294 c-0.4365-4.7393-1.71-9.2891,0.6104-13.7788C31.1953,48.4131,30.5771,48.1519,30.3389,48.5254z" fill="inherit"/></g><g id="change1_17"><path d="M35.5752,44.9517c0.1494-0.2998-0.2803-0.6426-0.498-0.356c-2.3818,3.1475-3.2783,8.0264-1.4922,11.6729 c0.127,0.2573,0.585,0.1616,0.6094-0.1196c0.1641-1.9316-0.207-3.8574-0.0869-5.7983 C34.2236,48.4614,34.7383,46.6436,35.5752,44.9517z" fill="inherit"/></g><g id="change1_18"><path d="M38.4902,41.355c-1.8594,2.7651-2.8428,6.8584-1.3301,10.0088c0.1035,0.2153,0.4824,0.1646,0.5176-0.0762 c0.4775-3.3262-0.2227-6.4727,1.292-9.6602C39.1221,41.3052,38.6885,41.0601,38.4902,41.355z" fill="inherit"/></g><g id="change1_19"><path d="M42.2598,38.1919c0.1367-0.2949-0.2305-0.5093-0.4268-0.2559c-1.9023,2.437-2.7021,6.2397-1.3652,9.126 c0.1357,0.2939,0.5352,0.1011,0.5479-0.1631c0.0654-1.3491-0.0928-2.6948-0.0264-4.0503 C41.0703,41.2324,41.5869,39.6519,42.2598,38.1919z" fill="inherit"/></g><g id="change1_20"><path d="M56.501,30.1987c-0.04-0.0142-0.0869-0.0288-0.1309-0.0464c-0.2656-0.333-0.8594-0.2544-0.8916,0.2617 c-0.0352,0.542,0.4668,0.8682,0.9639,0.7153C56.8857,30.9932,56.9805,30.3696,56.501,30.1987z" fill="inherit"/></g><g id="change1_21"><path d="M57.1357,28.5083c-0.2285-0.1426-0.5117-0.1812-0.7725-0.2466c-0.2305-0.0566-0.4521-0.1519-0.6709-0.2412 c-0.4678-0.1904-0.8633,0.5264-0.4219,0.793c0.5156,0.311,1.1787,0.7368,1.7949,0.4893 C57.3779,29.1763,57.4229,28.6875,57.1357,28.5083z" fill="inherit"/></g><g id="change1_22"><path d="M57.5098,26.2646c-0.332-0.29-0.8047-0.3066-1.208-0.4478c-0.4033-0.1396-0.7744-0.3257-1.0938-0.6123 c-0.2373-0.2144-0.7041,0.0459-0.5488,0.3662c0.2764,0.5732,0.6484,0.9761,1.2188,1.2632 c0.4688,0.2358,1.165,0.3687,1.6143,0.0415C57.6982,26.7246,57.6963,26.4282,57.5098,26.2646z" fill="inherit"/></g><g id="change1_23"><path d="M58.0361,24.0518c-0.5938-0.3052-1.2803-0.3447-1.8867-0.6436c-0.6904-0.3403-1.1963-1.0801-1.4414-1.7876 c-0.1113-0.3135-0.5566-0.2432-0.5684,0.0874c-0.0322,0.9463,0.2109,1.7759,0.9219,2.4404 c0.7285,0.6802,1.9639,1.1143,2.9248,0.7529C58.3154,24.7773,58.3516,24.2139,58.0361,24.0518z" fill="inherit"/></g><g id="change1_24"><path d="M58.5625,21.042c-0.6699-0.3511-1.4219-0.437-2.082-0.8403c-0.6328-0.3867-1.1113-0.9937-1.4756-1.6294 c-0.167-0.2886-0.5811-0.085-0.5156,0.2202c0.3545,1.6509,2.1953,3.5327,4.043,2.9165 C58.8457,21.605,58.8311,21.1836,58.5625,21.042z" fill="inherit"/></g><g id="change1_25"><path d="M59.3604,17.9961c-0.6621-0.5415-1.5547-0.6909-2.3105-1.0737c-1.002-0.5073-1.8809-1.2744-2.4785-2.229 c-0.1729-0.2769-0.6611-0.0845-0.5361,0.2368c0.4326,1.1128,1.0371,1.9282,1.9785,2.6665 c0.8525,0.668,2.2324,1.2568,3.2861,0.7808C59.4297,18.3174,59.4785,18.0933,59.3604,17.9961z" fill="inherit"/></g><g id="change1_26"><path d="M58.9814,13.8521c-0.8984-0.4082-1.9062-0.4175-2.791-0.8916c-0.8398-0.4502-1.4785-1.2563-1.8643-2.1128 c-0.1328-0.2949-0.5215-0.0742-0.4824,0.1958c0.3135,2.166,2.8848,4.3833,5.1318,3.2524 C59.1387,14.2148,59.1592,13.9321,58.9814,13.8521z" fill="inherit"/></g><g id="change1_27"><path d="M59.3574,9.5542C58.5947,9.29,57.793,9.2344,57.0283,8.9849c-0.9189-0.2988-1.4111-0.9946-1.6699-1.9028 c-0.0391-0.1396-0.248-0.1943-0.3037-0.0293c-0.8242,2.48,2.4287,3.7144,4.3379,2.9009 C59.5762,9.875,59.5264,9.6118,59.3574,9.5542z" fill="inherit"/></g><g id="change1_28"><path d="M47.1729,29.458c-0.8057-0.3652-1.7256-0.2856-2.5859-0.4302c-0.8975-0.1514-1.7324-0.498-2.585-0.7939 c-0.2646-0.0913-0.5107,0.29-0.3428,0.5005c1.0791,1.3433,4.0195,2.4624,5.5566,1.3262 C47.4219,29.9087,47.4219,29.5723,47.1729,29.458z" fill="inherit"/></g><g id="change1_29"><path d="M47.1611,25.9814c-0.957-0.4482-2.0996-0.3687-3.123-0.6235c-1.124-0.2803-2.1738-0.8901-3.1035-1.5654 c-0.2676-0.1943-0.7061,0.0835-0.4824,0.3989c1.2793,1.8037,4.6416,3.9531,6.7764,2.2446 C47.3721,26.3218,47.3184,26.0547,47.1611,25.9814z" fill="inherit"/></g><g id="change1_30"><path d="M45.8486,22.1411c-1.0498-0.543-2.3965-0.5967-3.5234-0.9644c-1.1152-0.3652-2.0928-1.0381-3.0449-1.7021 c-0.2773-0.1934-0.7139,0.082-0.4902,0.4097c1.2969,1.8965,4.6777,4.019,7.0322,2.9355 C46.1143,22.686,46.1465,22.2939,45.8486,22.1411z" fill="inherit"/></g><g id="change1_31"><path d="M44.3975,18.2417c-1.2148-0.7788-2.9287-0.7471-4.2637-1.3291c-1.1562-0.5054-2.1738-1.2798-3.1553-2.0596 c-0.2109-0.1655-0.4453,0.1343-0.3477,0.3345c0.6396,1.3154,1.666,2.2446,2.9492,2.9326 c1.3145,0.7061,3.4297,1.4326,4.8252,0.6226C44.6045,18.6274,44.5771,18.3564,44.3975,18.2417z" fill="inherit"/></g><g id="change1_32"><path d="M43.2119,14.0474c-1.5645-0.4795-3.1768-0.6221-4.7168-1.2251c-1.1582-0.4546-2.0889-1.2705-3.1719-1.8511 c-0.1807-0.0972-0.4756,0.0649-0.3857,0.2935c1.1064,2.8105,5.6201,4.3574,8.3379,3.479 C43.6562,14.6201,43.5264,14.145,43.2119,14.0474z" fill="inherit"/></g><g id="change1_33"><path d="M42.002,9.7842c-1.5342-0.1533-3.0361-0.0103-4.5713-0.2915c-1.6172-0.2959-3.1455-1.0986-4.4561-2.063 c-0.3252-0.2388-0.71,0.1597-0.4297,0.4614c2.2715,2.4414,6.3516,3.9971,9.5596,2.4678 C42.3467,10.2432,42.2686,9.8105,42.002,9.7842z" fill="inherit"/></g><g id="change1_34"><path d="M40.7256,6.0972C39.1797,5.9849,37.627,5.9644,36.083,5.814c-1.3906-0.1353-2.8057-0.7285-4.1963-0.6655 c-0.1465,0.0063-0.2871,0.1851-0.1553,0.314c1.9824,1.9521,6.584,1.9521,9.043,1.1011 C41.0234,6.4766,41.0039,6.1172,40.7256,6.0972z" fill="inherit"/></g></g></g></svg>