<?xml version="1.0" encoding="UTF-8"?><svg xmlns="http://www.w3.org/2000/svg" xmlns:xlink="http://www.w3.org/1999/xlink" fill="#000000" height="44" preserveAspectRatio="xMidYMid meet" version="1" viewBox="0.0 0.0 39.7 44.0" width="39.7" zoomAndPan="magnify"><defs><clipPath id="a"><path d="M 19 0 L 39.730469 0 L 39.730469 44 L 19 44 Z M 19 0"/></clipPath></defs><g><g id="change1_2"><path d="M 11.660156 42.898438 C 11.453125 41.511719 10.265625 40.4375 8.816406 40.4375 C 7.371094 40.4375 6.179688 41.511719 5.972656 42.898438 L 3.851562 42.898438 L 3.851562 39.078125 L 13.78125 39.078125 L 13.773438 42.898438 Z M 7.085938 42.898438 C 7.28125 42.121094 7.980469 41.539062 8.816406 41.539062 C 9.65625 41.539062 10.355469 42.121094 10.546875 42.898438 Z M 16.535156 1.101562 L 16.535156 3.265625 L 1.101562 3.265625 L 1.101562 1.101562 Z M 3.808594 37.976562 L 1.140625 4.367188 L 16.492188 4.367188 L 13.828125 37.976562 Z M 14.875 43.453125 L 14.882812 38.550781 L 17.632812 3.851562 L 17.632812 0.550781 C 17.632812 0.246094 17.386719 0 17.085938 0 L 0.550781 0 C 0.402344 0 0.265625 0.0585938 0.160156 0.160156 C 0.0585938 0.265625 0 0.40625 0 0.550781 L 0.00390625 3.894531 L 2.75 38.550781 L 2.75 43.449219 C 2.75 43.753906 2.996094 44 3.300781 44 L 14.324219 44 C 14.628906 44 14.871094 43.753906 14.875 43.453125" fill="#f17677"/></g><g id="change1_3"><path d="M 13.1875 15.730469 C 13 15.917969 12.734375 16.003906 12.46875 15.964844 C 12.296875 15.9375 12.121094 16 12 16.121094 C 11.875 16.242188 11.820312 16.417969 11.84375 16.589844 C 11.882812 16.859375 11.796875 17.121094 11.605469 17.3125 C 11.277344 17.640625 10.738281 17.640625 10.410156 17.3125 C 10.25 17.152344 10.160156 16.9375 10.160156 16.710938 C 10.160156 16.484375 10.25 16.273438 10.410156 16.113281 L 10.414062 16.105469 C 10.519531 16.003906 10.578125 15.863281 10.578125 15.71875 C 10.578125 15.570312 10.519531 15.429688 10.414062 15.328125 L 6.585938 11.5 C 6.484375 11.398438 6.339844 11.34375 6.195312 11.34375 C 6.050781 11.34375 5.90625 11.40625 5.800781 11.507812 C 5.480469 11.828125 4.925781 11.828125 4.605469 11.507812 C 4.273438 11.175781 4.273438 10.640625 4.605469 10.3125 C 4.796875 10.121094 5.058594 10.035156 5.328125 10.074219 C 5.5 10.101562 5.671875 10.039062 5.792969 9.917969 C 5.917969 9.792969 5.976562 9.621094 5.949219 9.449219 C 5.910156 9.179688 6 8.917969 6.1875 8.726562 C 6.515625 8.398438 7.054688 8.398438 7.386719 8.726562 C 7.714844 9.058594 7.714844 9.59375 7.386719 9.925781 C 7.167969 10.140625 7.167969 10.488281 7.386719 10.703125 L 11.214844 14.53125 C 11.429688 14.746094 11.777344 14.746094 11.992188 14.53125 C 12.320312 14.203125 12.859375 14.203125 13.1875 14.53125 C 13.519531 14.859375 13.519531 15.398438 13.1875 15.730469 Z M 13.964844 13.753906 C 13.34375 13.128906 12.398438 13.019531 11.660156 13.421875 L 8.496094 10.257812 C 8.898438 9.519531 8.785156 8.574219 8.164062 7.949219 C 7.40625 7.191406 6.167969 7.191406 5.410156 7.949219 C 5.125 8.234375 4.941406 8.601562 4.871094 8.992188 C 4.480469 9.058594 4.117188 9.242188 3.828125 9.53125 C 3.070312 10.292969 3.070312 11.527344 3.828125 12.285156 C 4.433594 12.890625 5.425781 13.015625 6.148438 12.617188 L 9.304688 15.773438 C 9.144531 16.054688 9.0625 16.378906 9.0625 16.714844 C 9.0625 17.230469 9.265625 17.722656 9.632812 18.089844 C 10.011719 18.46875 10.511719 18.65625 11.007812 18.65625 C 11.507812 18.65625 12.003906 18.46875 12.386719 18.089844 C 12.675781 17.800781 12.859375 17.4375 12.925781 17.046875 C 13.316406 16.980469 13.679688 16.796875 13.96875 16.507812 C 14.726562 15.746094 14.726562 14.511719 13.964844 13.753906" fill="#f17677"/></g><g clip-path="url(#a)" id="change1_1"><path d="M 38.632812 14.941406 L 20.816406 14.941406 L 20.816406 13.734375 C 20.816406 11.847656 21.890625 10.035156 23.757812 8.761719 C 24.261719 8.417969 24.71875 8.160156 25.117188 7.933594 C 26.304688 7.261719 27.179688 6.765625 27.277344 5.101562 L 32.371094 5.101562 C 32.457031 6.777344 33.367188 7.339844 34.519531 8.027344 C 34.910156 8.257812 35.355469 8.523438 35.835938 8.867188 C 37.640625 10.148438 38.632812 11.878906 38.632812 13.734375 Z M 37.40625 42.898438 L 22.042969 42.898438 C 21.378906 42.898438 20.816406 42.527344 20.816406 42.085938 L 20.816406 32.382812 L 38.632812 32.382812 L 38.632812 42.085938 C 38.632812 42.527344 38.070312 42.898438 37.40625 42.898438 Z M 38.632812 31.285156 L 20.816406 31.285156 L 20.816406 16.042969 L 38.632812 16.042969 Z M 25.929688 3.820312 L 25.929688 1.28125 C 25.929688 1.179688 26.011719 1.101562 26.109375 1.101562 L 33.339844 1.101562 C 33.4375 1.101562 33.519531 1.179688 33.519531 1.28125 L 33.519531 3.820312 C 33.519531 3.917969 33.4375 4 33.339844 4 L 26.109375 4 C 26.011719 4 25.929688 3.917969 25.929688 3.820312 Z M 36.472656 7.96875 C 35.957031 7.601562 35.492188 7.324219 35.082031 7.082031 C 34.011719 6.441406 33.527344 6.140625 33.464844 5.085938 C 34.109375 5.023438 34.621094 4.484375 34.621094 3.820312 L 34.621094 1.28125 C 34.621094 0.574219 34.046875 0 33.339844 0 L 26.109375 0 C 25.40625 0 24.832031 0.574219 24.832031 1.28125 L 24.832031 3.820312 C 24.832031 4.527344 25.40625 5.101562 26.109375 5.101562 L 26.171875 5.101562 C 26.097656 6.101562 25.640625 6.371094 24.578125 6.976562 C 24.15625 7.214844 23.679688 7.484375 23.136719 7.855469 C 20.964844 9.335938 19.71875 11.480469 19.71875 13.734375 L 19.71875 42.085938 C 19.71875 43.140625 20.761719 44 22.042969 44 L 37.40625 44 C 38.6875 44 39.730469 43.140625 39.730469 42.085938 L 39.730469 13.734375 C 39.730469 11.542969 38.542969 9.445312 36.472656 7.96875" fill="#f17677"/></g><g id="change1_4"><path d="M 29.722656 23.445312 C 31.121094 23.445312 32.253906 24.582031 32.253906 25.976562 C 32.253906 27.371094 31.121094 28.507812 29.722656 28.507812 C 28.328125 28.507812 27.195312 27.371094 27.195312 25.976562 C 27.195312 24.582031 28.328125 23.445312 29.722656 23.445312 Z M 26.09375 25.976562 C 26.09375 27.976562 27.722656 29.605469 29.722656 29.605469 C 31.726562 29.605469 33.355469 27.976562 33.355469 25.976562 C 33.355469 23.972656 31.726562 22.34375 29.722656 22.34375 C 27.722656 22.34375 26.09375 23.972656 26.09375 25.976562" fill="#f17677"/></g><g id="change1_5"><path d="M 24.621094 22.203125 C 25 22.203125 25.308594 22.511719 25.308594 22.890625 C 25.308594 23.269531 25 23.578125 24.621094 23.578125 C 24.242188 23.578125 23.933594 23.269531 23.933594 22.890625 C 23.933594 22.511719 24.242188 22.203125 24.621094 22.203125 Z M 24.621094 24.675781 C 25.605469 24.675781 26.40625 23.875 26.40625 22.890625 C 26.40625 21.90625 25.605469 21.101562 24.621094 21.101562 C 23.636719 21.101562 22.832031 21.90625 22.832031 22.890625 C 22.832031 23.875 23.636719 24.675781 24.621094 24.675781" fill="#f17677"/></g><g id="change1_6"><path d="M 34.828125 22.203125 C 35.207031 22.203125 35.515625 22.511719 35.515625 22.890625 C 35.515625 23.269531 35.207031 23.578125 34.828125 23.578125 C 34.449219 23.578125 34.140625 23.269531 34.140625 22.890625 C 34.140625 22.511719 34.449219 22.203125 34.828125 22.203125 Z M 33.042969 22.890625 C 33.042969 23.875 33.84375 24.675781 34.828125 24.675781 C 35.816406 24.675781 36.617188 23.875 36.617188 22.890625 C 36.617188 21.90625 35.816406 21.101562 34.828125 21.101562 C 33.84375 21.101562 33.042969 21.90625 33.042969 22.890625" fill="#f17677"/></g><g id="change1_7"><path d="M 27.101562 19.191406 C 27.160156 19.089844 27.285156 18.910156 27.5 18.875 C 27.527344 18.867188 27.554688 18.867188 27.578125 18.867188 C 27.921875 18.867188 28.261719 19.238281 28.347656 19.726562 C 28.394531 20.003906 28.351562 20.285156 28.234375 20.5 C 28.175781 20.601562 28.046875 20.777344 27.835938 20.816406 C 27.46875 20.878906 27.082031 20.488281 26.988281 19.960938 C 26.941406 19.683594 26.984375 19.402344 27.101562 19.191406 Z M 27.757812 21.921875 C 27.84375 21.921875 27.933594 21.914062 28.019531 21.898438 C 28.507812 21.816406 28.933594 21.5 29.195312 21.035156 C 29.4375 20.601562 29.519531 20.070312 29.429688 19.542969 C 29.234375 18.410156 28.285156 17.621094 27.316406 17.789062 C 26.828125 17.871094 26.402344 18.1875 26.140625 18.65625 C 25.898438 19.089844 25.816406 19.617188 25.90625 20.148438 C 26.082031 21.179688 26.882812 21.921875 27.757812 21.921875" fill="#f17677"/></g><g id="change1_8"><path d="M 31.148438 19.644531 C 31.285156 19.199219 31.632812 18.882812 31.957031 18.882812 C 32.003906 18.882812 32.050781 18.890625 32.09375 18.902344 C 32.449219 19.011719 32.621094 19.535156 32.464844 20.046875 C 32.382812 20.3125 32.21875 20.546875 32.019531 20.683594 C 31.917969 20.75 31.726562 20.851562 31.519531 20.785156 C 31.3125 20.722656 31.207031 20.53125 31.164062 20.421875 C 31.070312 20.195312 31.066406 19.914062 31.148438 19.644531 Z M 31.199219 21.839844 C 31.34375 21.882812 31.5 21.90625 31.652344 21.90625 C 31.988281 21.90625 32.332031 21.800781 32.636719 21.59375 C 33.046875 21.316406 33.359375 20.878906 33.515625 20.367188 C 33.851562 19.269531 33.359375 18.140625 32.414062 17.851562 C 31.472656 17.5625 30.433594 18.222656 30.097656 19.324219 C 29.941406 19.835938 29.957031 20.371094 30.144531 20.832031 C 30.339844 21.328125 30.726562 21.695312 31.199219 21.839844" fill="#f17677"/></g></g></svg>