<?xml version="1.0" encoding="UTF-8"?><svg xmlns="http://www.w3.org/2000/svg" xmlns:xlink="http://www.w3.org/1999/xlink" fill="#f17677" height="39" id="Слой_1" preserveAspectRatio="xMidYMid meet" style="enable-background:new 0 0 56 56" version="1.1" viewBox="4.0 8.5 48.0 39.0" width="48" x="0px" xml:space="preserve" y="0px" zoomAndPan="magnify">
<g id="change1_1">
	<path d="m34.982 45.43c-1.436 0-4.217-0.242-6.096-1.943-0.341-0.309-0.636-0.649-0.885-1.019-0.249 0.37-0.544 0.71-0.885 1.019-2.453 2.217-6.439 1.955-6.971 1.909-2.591-0.021-6.022-1.794-7.761-10.045-0.985-4.676-0.994-9.268-0.994-9.461 0-11.949 8.611-17.391 16.612-17.391s16.612 5.442 16.612 17.391c0 0.193-0.01 4.784-0.995 9.46-1.739 8.251-5.17 10.024-7.761 10.045-0.125 0.012-0.438 0.035-0.876 0.035zm-6.981-7.532c0.55 0 0.996 0.446 0.996 0.997 0 1.349 0.401 2.367 1.224 3.112 1.599 1.445 4.501 1.504 5.487 1.4 0.034-0.003 0.067-0.005 0.101-0.005 3.37 0 5.047-4.602 5.86-8.463 0.943-4.473 0.952-9.003 0.952-9.048 0-10.579-7.578-15.398-14.62-15.398s-14.62 4.819-14.62 15.397c0 0.046 0.011 4.601 0.957 9.074 0.814 3.849 2.491 8.437 5.855 8.437 0.033 0 0.067 0.002 0.1 0.005 0.035 0.004 3.581 0.331 5.493-1.404 0.821-0.745 1.219-1.761 1.219-3.108 0-0.55 0.446-0.996 0.996-0.996z" fill="inherit" id="XMLID_8_"/>
	<path d="m47.093 30.371c-0.191 0-0.383-0.055-0.553-0.168-0.457-0.307-0.58-0.926-0.273-1.384l1.585-2.369c1.656-2.198 2.067-4.486 1.257-6.845-0.362-1.052-1.008-2.036-2.096-3.189l-2.956-3.14c-0.393-0.417-1.042-0.951-1.897-1.128-1.947-0.404-2.965 1.073-2.975 1.088-0.308 0.456-0.928 0.574-1.383 0.264s-0.574-0.929-0.265-1.385c0.072-0.106 1.799-2.586 5.025-1.92 1.079 0.223 2.098 0.816 2.944 1.713l2.956 3.14c1.29 1.37 2.071 2.576 2.529 3.909 0.715 2.08 1.032 5.268-1.518 8.65l-1.552 2.323c-0.192 0.286-0.507 0.441-0.828 0.441z" fill="inherit" id="XMLID_7_"/>
	<path d="m8.91 30.371c-0.321 0-0.636-0.155-0.829-0.442l-1.585-2.369c-2.517-3.335-2.2-6.524-1.486-8.603 0.458-1.333 1.238-2.539 2.529-3.91l2.957-3.139c0.846-0.897 1.863-1.49 2.943-1.713 3.222-0.669 4.953 1.814 5.025 1.92 0.309 0.456 0.191 1.075-0.264 1.385-0.454 0.308-1.069 0.192-1.379-0.258-0.051-0.072-1.083-1.489-2.979-1.094-0.856 0.177-1.503 0.711-1.896 1.128l-2.957 3.139c-1.088 1.155-1.734 2.139-2.095 3.19-0.811 2.359-0.399 4.647 1.224 6.799l1.618 2.415c0.306 0.458 0.183 1.077-0.273 1.384-0.17 0.114-0.363 0.168-0.553 0.168z" fill="inherit" id="XMLID_6_"/>
	<path d="m28.001 39.876c-0.888 0-1.717-0.397-2.274-1.09l-2.065-2.567c-0.712-0.885-0.85-2.072-0.36-3.096 0.49-1.025 1.499-1.662 2.634-1.662h4.13c1.136 0 2.145 0.637 2.635 1.662 0.489 1.025 0.351 2.212-0.362 3.097l-2.064 2.566c-0.557 0.692-1.386 1.09-2.274 1.09zm-2.065-6.421c-0.543 0-0.778 0.404-0.838 0.529-0.059 0.124-0.226 0.562 0.115 0.985l2.065 2.567c0.354 0.44 1.092 0.44 1.446 0l2.065-2.568c0.34-0.423 0.174-0.861 0.115-0.984s-0.295-0.529-0.838-0.529h-4.13z" fill="inherit" id="XMLID_3_"/>
	<path d="m28.279 47.5c-2.127 0-4.175-0.982-5.766-2.766l1.485-1.328c1.209 1.354 2.729 2.1 4.281 2.1 1.493 0 2.914-0.661 4.107-1.911l1.439 1.379c-1.556 1.628-3.525 2.526-5.546 2.526z" fill="inherit" id="XMLID_2_"/>
	<circle cx="22.835" cy="23.817" fill="inherit" id="XMLID_85_" r="1.245"/>
	<circle cx="33.167" cy="23.817" fill="inherit" id="XMLID_86_" r="1.245"/>
</g>
</svg>