<?xml version="1.0" encoding="UTF-8"?><svg xmlns="http://www.w3.org/2000/svg" xmlns:xlink="http://www.w3.org/1999/xlink" fill="#000000" height="278.9" preserveAspectRatio="xMidYMid meet" version="1.1" viewBox="-1.6 -1.9 287.2 278.9" width="287.2" zoomAndPan="magnify">
 <g id="change1_1">
  <path d="m52.613 221.27c-5.019-1.21-2.883-8.93 2.129-7.73 24.414 5.88 50.058 8.47 75.058 5.34 33.47-4.2 62.32-21.26 83.86-47.04 3.3-3.97 8.94 1.73 5.66 5.66-22.3 26.7-52.42 44.36-86.96 49.05-26.54 3.61-53.798 0.96-79.747-5.28zm184.44-70.69c-2.31 4.62-9.21 0.56-6.92-4.04 3.89-7.82 7.13-15.92 9.41-24.36 0.65-2.39 1.23-4.8 1.69-7.23 0.11-0.54 0.59-3.75 0.37-2 0.63-5.05 8.64-5.1 8.01 0-1.63 13.12-6.72 25.9-12.56 37.63zm13.75 20.16c-10.75 29.66-30.94 51.58-60 65.15-88.06 41.13-155.1-13.8-155.69-14.35-2.122-2.12-4.872-7.65-4.434-9.62 0.277-1.23 2.75-3.55 5.09-5.14 39.043-0.44 74.444-7.56 105.25-21.14 24.97-11 46.97-26.25 65.4-45.31 26.44-27.35 37.72-54.322 40.87-62.994h4.56c7.52 18.449 11.89 57.704-1.05 93.404zm-240.26-0.66c-1.6367-2.52-3.1718-8.49-2.3359-10.33 0.5274-1.15 3.4259-2.9 6.0469-3.97 38.262 7.69 74.27 8.35 107.04 1.97 26.57-5.18 51.06-14.96 72.81-29.09 12.7-8.25 22.93-16.96 30.92-24.9-5.98 9.49-13.95 20.25-24.35 31.01-26.8 27.72-75.43 60.68-156.37 63.78-20.07-12.36-32.206-26.25-33.761-28.47zm266.42-169.58c-16.48 8.7148-26.6 24.465-29.98 42.57-1.27 6.793-1.75 13.731-1.56 20.637 0.05 1.809 0.34 3.731 0.52 5.629h-4.47l-0.73 2.387c-1.94 3.25-17.9 28.837-51.35 50.457-32.84 21.22-89.788 42.87-174.67 25.53l-1.072-0.21-1.031 0.35c-1.539 0.53-9.3397 3.43-11.691 8.58-2.5315 5.55 0.6951 14.61 2.9021 18.01 1.2735 1.96 11.067 13.56 27.91 25.41-2.304 1.5-7.797 5.51-8.871 10.34-1.324 5.95 3.723 14.14 6.586 17.01 2.262 2.26 20.918 16.48 49.117 25.08 12.321 3.76 27.89 6.84 45.8 6.84 20.63 0 44.37-4.1 69.82-15.98 31.05-14.5 52.63-37.94 64.13-69.67 15.09-41.63 7.87-84.556-0.23-101.83l-1.08-2.304h-3.11c-0.16-1.457-0.37-2.918-0.42-4.297-0.25-5.973-0.05-12.012 0.89-17.922 2.7-16.922 11.19-31.535 26.63-39.703 4.56-2.4101 0.52-9.3242-4.04-6.914" fill="#545454"/>
 </g>
</svg>