<?xml version="1.0" encoding="UTF-8"?><svg xmlns="http://www.w3.org/2000/svg" xmlns:xlink="http://www.w3.org/1999/xlink" fill="#000000" height="544.5" preserveAspectRatio="xMidYMid meet" version="1" viewBox="155.9 25.4 283.5 544.5" width="283.5" zoomAndPan="magnify"><g id="change1_1"><path d="M 187.84375 128.570312 L 187.84375 67.503906 C 187.84375 66.816406 188.421875 66.238281 189.109375 66.238281 L 190.800781 66.238281 C 191.550781 66.238281 192.019531 67.0625 192.078125 67.84375 C 194.402344 98.621094 191.28125 117.570312 187.84375 128.570312 Z M 190.800781 57.238281 L 189.109375 57.238281 C 183.449219 57.238281 178.84375 61.84375 178.84375 67.503906 L 178.84375 145.308594 C 178.84375 148.027344 180.933594 150.15625 183.605469 150.15625 C 185.789062 150.15625 187.34375 148.753906 188.320312 147.699219 C 190.101562 145.78125 205.585938 127.210938 201.054688 67.164062 C 200.625 61.503906 196.21875 57.238281 190.800781 57.238281" fill="#545454"/><path d="M 187.84375 275.839844 C 187.84375 275.152344 188.421875 274.570312 189.109375 274.570312 L 190.800781 274.570312 C 191.550781 274.570312 192.019531 275.398438 192.078125 276.175781 C 194.402344 306.953125 191.28125 325.90625 187.84375 336.90625 Z M 183.605469 358.492188 C 185.789062 358.492188 187.34375 357.089844 188.320312 356.035156 C 190.101562 354.117188 205.585938 335.546875 201.054688 275.496094 C 200.625 269.839844 196.214844 265.570312 190.800781 265.570312 L 189.109375 265.570312 C 183.449219 265.570312 178.84375 270.175781 178.84375 275.839844 L 178.84375 353.644531 C 178.84375 356.363281 180.933594 358.492188 183.605469 358.492188" fill="#545454"/><path d="M 164.898438 227.035156 L 164.898438 50.535156 C 164.898438 41.640625 173.050781 34.402344 183.074219 34.402344 L 412.207031 34.402344 C 422.230469 34.402344 430.382812 41.640625 430.382812 50.535156 L 430.382812 227.035156 Z M 430.382812 247.035156 L 164.898438 247.035156 L 164.898438 236.035156 L 430.382812 236.035156 Z M 430.382812 542.699219 C 430.382812 552.722656 422.230469 560.875 412.207031 560.875 L 183.074219 560.875 C 173.050781 560.875 164.898438 552.722656 164.898438 542.699219 L 164.898438 256.035156 L 430.382812 256.035156 Z M 412.207031 25.402344 L 183.074219 25.402344 C 168.089844 25.402344 155.898438 36.675781 155.898438 50.535156 L 155.898438 542.699219 C 155.898438 557.683594 168.089844 569.875 183.074219 569.875 L 412.207031 569.875 C 427.191406 569.875 439.382812 557.683594 439.382812 542.699219 L 439.382812 50.535156 C 439.382812 36.675781 427.191406 25.402344 412.207031 25.402344" fill="#545454"/></g></svg>